<?xml version="1.0" encoding="UTF-8"?>
<svg version="1.1" xmlns="http://www.w3.org/2000/svg" width="512" height="512">
<path d="M0 0 C1.3333735 -0.00514972 2.66674016 -0.01243889 4.00009155 -0.02168274 C7.59335906 -0.04007357 11.18587702 -0.02733678 14.77911258 -0.00759244 C18.5575883 0.00890176 22.33602052 -0.00003386 26.11451721 -0.00511169 C32.45846398 -0.00962127 38.80211482 0.00616487 45.14599609 0.03417969 C52.45565432 0.06621279 59.7647787 0.06621758 67.07447475 0.04896492 C74.13636229 0.03303847 81.19805618 0.0398734 88.25993538 0.05690193 C91.25131521 0.06373207 94.24253793 0.06278188 97.23391533 0.05535698 C100.7644726 0.04763146 104.29443082 0.06002113 107.82488632 0.08720589 C109.72036625 0.0972508 111.61591863 0.08797202 113.51139832 0.07788086 C131.15137644 0.27248587 142.05770372 9.23771679 154.85522461 20.25268555 C158.99017557 23.79746738 163.19359517 27.24998608 167.46313477 30.63110352 C168.28297852 31.28208008 169.10282227 31.93305664 169.94750977 32.60375977 C183.61968759 42.85789314 197.30535222 42.2016138 213.70776367 42.12939453 C216.16618681 42.13322162 218.62460771 42.13884397 221.08302307 42.14611816 C226.3588947 42.1580353 231.63456008 42.15808601 236.91041946 42.14752388 C244.5490894 42.13251681 252.18757495 42.14254888 259.8262345 42.15904307 C272.23678179 42.18544702 284.64728746 42.19636505 297.05786133 42.1953125 C298.16971411 42.19522502 298.16971411 42.19522502 299.30402856 42.19513576 C302.307345 42.19486992 305.31066144 42.19455263 308.31397787 42.19417251 C316.58570261 42.19320571 324.85742608 42.19453528 333.12915039 42.19726562 C333.87007957 42.19750552 334.61100874 42.19774541 335.37439032 42.19799257 C347.74395467 42.20240442 360.11348048 42.21865616 372.48302209 42.24248642 C380.0997846 42.25652392 387.71640018 42.25946694 395.33316766 42.24786352 C401.17041173 42.23965213 407.00757691 42.24641704 412.84481621 42.25855255 C415.23366153 42.26095587 417.62251848 42.25823337 420.01135063 42.24994469 C423.2785518 42.23928792 426.54522395 42.2471024 429.81240845 42.2592926 C430.75172262 42.25171655 431.69103679 42.24414049 432.65881503 42.23633486 C441.96041193 42.30964642 449.93287329 44.1511729 456.77172852 50.65844727 C461.52990172 56.20781786 463.58627139 62.36329308 463.59456253 69.59736061 C463.59840368 70.85180587 463.60224482 72.10625114 463.60620236 73.39870989 C463.60542207 74.79857236 463.60454328 76.19843477 463.60357666 77.59829712 C463.60615956 79.07940097 463.60917251 80.56050412 463.61258006 82.04160631 C463.62066239 86.1220228 463.62244032 90.20242171 463.62317753 94.28284526 C463.62502598 98.67973857 463.63257234 103.07662272 463.63931274 107.47351074 C463.65290609 117.09346405 463.65892255 126.71341319 463.6633234 136.3333745 C463.66608455 142.33918757 463.67032171 148.34499903 463.67482758 154.350811 C463.68702234 170.97577374 463.69732073 187.60073518 463.70070267 204.22570229 C463.70092223 205.29017291 463.7011418 206.35464354 463.70136802 207.45137086 C463.7015863 208.5184087 463.70180457 209.58544654 463.70202947 210.68481886 C463.70247293 212.84708953 463.7029195 215.00936019 463.70336914 217.17163086 C463.70359057 218.24419488 463.703812 219.3167589 463.70404014 220.42182486 C463.70798735 237.79759655 463.72543809 255.17332628 463.74872866 272.54908176 C463.77244214 290.38420758 463.78490454 308.21931236 463.78607059 326.05445421 C463.78698743 336.06989156 463.79274204 346.08527426 463.8108902 356.10069656 C463.82629124 364.63023631 463.83141168 373.15970454 463.8231521 381.68925555 C463.8192454 386.04071785 463.8201761 390.39203611 463.83420944 394.74348068 C463.84694732 398.72972709 463.84575188 402.71572123 463.83361873 406.70196728 C463.83166151 408.14146535 463.83474134 409.58098127 463.84346309 411.02045424 C463.90084371 421.13385492 463.60906224 430.43533485 456.27530193 438.07401335 C447.25938441 445.82086847 437.1699509 445.3405627 425.94042969 445.26602173 C424.04975987 445.27178739 422.15909566 445.27973149 420.26844311 445.28965795 C415.08826856 445.31049329 409.90855574 445.30023102 404.72837973 445.28472686 C399.13591508 445.2734038 393.54352926 445.29088083 387.95108032 445.30462646 C377.00149934 445.32685311 366.05208979 445.32206016 355.10250211 445.30756326 C346.20311658 445.2962688 337.30377907 445.29474103 328.40438843 445.30018234 C326.50407845 445.30133159 326.50407845 445.30133159 324.56537837 445.30250406 C321.99170501 445.30410269 319.41803166 445.30572376 316.84435833 445.30736701 C293.40193366 445.3212165 269.95962403 445.30685697 246.51721995 445.28065403 C225.12707119 445.2569268 203.73707128 445.25904997 182.34692383 445.28295898 C158.30272538 445.30974489 134.25862849 445.32024957 110.21440983 445.30489767 C107.6502336 445.30330493 105.08605736 445.30173308 102.5218811 445.30018234 C101.2602756 445.29941096 99.9986701 445.29863959 98.69883412 445.29784483 C89.81070754 445.29352872 80.92263378 445.30081252 72.03451538 445.31258011 C61.20202702 445.32660679 50.36971981 445.32280142 39.53725219 445.29617639 C34.01091527 445.28304068 28.48488033 445.27788194 22.95854568 445.29442215 C17.89792023 445.30933937 12.83787617 445.30110383 7.77730334 445.27453439 C5.94837092 445.268957 4.11938923 445.27177318 2.2904886 445.28391333 C-8.11505213 445.34767724 -17.06726188 445.19005852 -25.3490324 438.07401335 C-33.57928336 429.50157051 -32.96843801 418.49806366 -32.91781616 407.34790039 C-32.92127575 405.68837425 -32.92604234 404.02885042 -32.9319979 402.36933136 C-32.94449616 397.82354544 -32.93834284 393.27794899 -32.92903924 388.73216248 C-32.92224429 383.82411428 -32.9327322 378.91609839 -32.940979 374.00805664 C-32.95431375 364.39890802 -32.95143973 354.78982973 -32.94274108 345.18067837 C-32.93596394 337.37060914 -32.93504795 329.56055961 -32.93831253 321.75048828 C-32.93877223 320.63861098 -32.93923193 319.52673368 -32.93970556 318.38116312 C-32.94066474 316.1223545 -32.94163738 313.86354589 -32.94262333 311.60473728 C-32.95117647 290.42749896 -32.94134428 269.2502996 -32.92522223 248.07306767 C-32.91181913 229.90489343 -32.91414724 211.73677671 -32.92797852 193.56860352 C-32.94403566 172.46676436 -32.9503525 151.36495934 -32.94114172 130.26311493 C-32.94018608 128.01264954 -32.93924297 125.76218415 -32.93831253 123.51171875 C-32.9378497 122.40446772 -32.93738688 121.29721669 -32.93691003 120.1564126 C-32.93432054 112.35638261 -32.93869024 104.55637429 -32.94575119 96.75634766 C-32.95416786 87.24978452 -32.95188248 77.7432957 -32.93590896 68.23674107 C-32.92802854 63.38703382 -32.9249308 58.53745045 -32.93485641 53.68774414 C-32.94380848 49.24653064 -32.93886198 44.8055556 -32.92292376 40.36436367 C-32.91957814 38.75950576 -32.92126511 37.15462762 -32.92855112 35.54978275 C-32.97257238 25.04613755 -32.98379678 15.21624848 -25.36850834 7.18820858 C-17.67421026 0.64717967 -9.76790796 -0.09301739 0 0 Z " fill="#FEB80B" transform="translate(40.536865234375,33.368896484375)"/>
<path d="M0 0 C1.3333735 -0.00514972 2.66674016 -0.01243889 4.00009155 -0.02168274 C7.59335906 -0.04007357 11.18587702 -0.02733678 14.77911258 -0.00759244 C18.5575883 0.00890176 22.33602052 -0.00003386 26.11451721 -0.00511169 C32.45846398 -0.00962127 38.80211482 0.00616487 45.14599609 0.03417969 C52.45565432 0.06621279 59.7647787 0.06621758 67.07447475 0.04896492 C74.13636229 0.03303847 81.19805618 0.0398734 88.25993538 0.05690193 C91.25131521 0.06373207 94.24253793 0.06278188 97.23391533 0.05535698 C100.7644726 0.04763146 104.29443082 0.06002113 107.82488632 0.08720589 C109.72036625 0.0972508 111.61591863 0.08797202 113.51139832 0.07788086 C131.15137644 0.27248587 142.05770372 9.23771679 154.85522461 20.25268555 C158.99017557 23.79746738 163.19359517 27.24998608 167.46313477 30.63110352 C168.28297852 31.28208008 169.10282227 31.93305664 169.94750977 32.60375977 C183.61968759 42.85789314 197.30535222 42.2016138 213.70776367 42.12939453 C216.16618681 42.13322162 218.62460771 42.13884397 221.08302307 42.14611816 C226.3588947 42.1580353 231.63456008 42.15808601 236.91041946 42.14752388 C244.5490894 42.13251681 252.18757495 42.14254888 259.8262345 42.15904307 C272.23678179 42.18544702 284.64728746 42.19636505 297.05786133 42.1953125 C298.16971411 42.19522502 298.16971411 42.19522502 299.30402856 42.19513576 C302.307345 42.19486992 305.31066144 42.19455263 308.31397787 42.19417251 C316.58570261 42.19320571 324.85742608 42.19453528 333.12915039 42.19726562 C333.87007957 42.19750552 334.61100874 42.19774541 335.37439032 42.19799257 C347.74395467 42.20240442 360.11348048 42.21865616 372.48302209 42.24248642 C380.0997846 42.25652392 387.71640018 42.25946694 395.33316766 42.24786352 C401.17041173 42.23965213 407.00757691 42.24641704 412.84481621 42.25855255 C415.23366153 42.26095587 417.62251848 42.25823337 420.01135063 42.24994469 C423.2785518 42.23928792 426.54522395 42.2471024 429.81240845 42.2592926 C430.75172262 42.25171655 431.69103679 42.24414049 432.65881503 42.23633486 C441.96041193 42.30964642 449.93287329 44.1511729 456.77172852 50.65844727 C461.99337824 56.74836207 463.61600872 63.267413 463.57666016 71.13183594 C463.57680618 71.89305252 463.57695221 72.6542691 463.57710266 73.43855286 C463.57640601 75.95458831 463.56862515 78.47054974 463.56079102 80.98657227 C463.55892596 82.73106343 463.55750247 84.47555512 463.5565033 86.220047 C463.55268503 90.81169073 463.54286061 95.40330284 463.53179932 99.99493408 C463.52157038 104.6802935 463.51700249 109.36565803 463.51196289 114.05102539 C463.50123774 123.24439866 463.48416957 132.43774846 463.46313477 141.63110352 C461.90421238 139.29271994 460.92103918 137.41125401 459.83813477 134.88110352 C457.04759739 129.23755404 452.66482309 125.10268697 446.94750977 122.47485352 C441.85332386 121.24128383 436.81275548 121.1605258 431.58813477 121.00610352 C429.98325195 120.9480957 429.98325195 120.9480957 428.34594727 120.88891602 C425.71851069 120.79507899 423.09107306 120.70938795 420.46313477 120.63110352 C420.45902588 119.9867334 420.45491699 119.34236328 420.45068359 118.6784668 C420.41739134 115.7034707 420.34671236 112.73042753 420.27563477 109.75610352 C420.26983398 108.74290039 420.2640332 107.72969727 420.25805664 106.68579102 C420.02626261 98.65026454 418.25760462 91.77350097 412.70849609 85.71557617 C404.59096319 78.09094153 396.24403899 78.19467075 385.59732056 78.23669434 C384.06738792 78.23180305 382.53745897 78.22561214 381.00753629 78.21823645 C376.8106877 78.20184394 372.61402705 78.20415343 368.41715765 78.20961142 C363.88807212 78.21228245 359.3590366 78.19774845 354.82997131 78.18551636 C345.95983984 78.16446351 337.08977374 78.15992142 328.21962024 78.16170424 C321.00971083 78.16301191 313.79982181 78.15920751 306.58991623 78.15177917 C304.51305147 78.14967998 302.43618671 78.14758238 300.35932195 78.14548635 C298.80874914 78.14392106 298.80874914 78.14392106 297.22685163 78.14232415 C277.67726236 78.12342247 258.12771061 78.1244718 238.57811598 78.13129348 C220.69493675 78.13686927 202.81190076 78.11604179 184.928755 78.08293301 C166.56464606 78.04919774 148.20060575 78.03402745 129.83646524 78.03865004 C119.52706914 78.04089484 109.21780545 78.03564989 98.90843582 78.01075745 C90.13191243 77.9897465 81.35559405 77.98615035 72.57906224 78.00505704 C68.10192219 78.01421601 63.62516441 78.01535303 59.14805412 77.99470139 C55.04708466 77.9759941 50.94681064 77.98049168 46.84586768 78.0032472 C45.3647681 78.00743361 43.88361523 78.00323143 42.40257199 77.98965126 C32.87127347 77.90822855 25.71007115 78.6237566 18.62375891 85.38648844 C11.74692386 92.63945184 10.98481851 99.94017467 10.77563477 109.56860352 C10.74147461 110.63401367 10.70731445 111.69942383 10.67211914 112.79711914 C10.5901525 115.40834197 10.5208359 118.01925073 10.46313477 120.63110352 C9.77799805 120.64044922 9.09286133 120.64979492 8.38696289 120.65942383 C5.24499041 120.71352261 2.10444409 120.79709175 -1.03686523 120.88110352 C-2.11452148 120.8952832 -3.19217773 120.90946289 -4.30249023 120.92407227 C-12.1524704 121.16340093 -17.6869029 122.38759542 -23.74389648 127.49047852 C-27.58239557 132.01075481 -29.81048485 135.94420343 -31.53686523 141.63110352 C-31.86686523 141.63110352 -32.19686523 141.63110352 -32.53686523 141.63110352 C-32.60707291 126.14051951 -32.65991088 110.64994748 -32.69230175 95.15924168 C-32.70774389 87.96597016 -32.72878234 80.77279774 -32.76318359 73.57958984 C-32.79316757 67.30701072 -32.81245951 61.03450339 -32.81913072 54.76185459 C-32.82302784 51.44319586 -32.83372539 48.12478932 -32.8540554 44.80618477 C-32.87589128 41.09348595 -32.87882949 37.38120993 -32.87744141 33.66845703 C-32.88822723 32.57872589 -32.89901306 31.48899475 -32.91012573 30.36624146 C-32.87464871 21.57378772 -31.60353277 13.76117365 -25.36850834 7.18820858 C-17.67421026 0.64717967 -9.76790796 -0.09301739 0 0 Z " fill="#E58B0A" transform="translate(40.536865234375,33.368896484375)"/>
<path d="M0 0 C1.29811906 -0.00905664 2.59623812 -0.01811328 3.93369412 -0.02744436 C5.36727451 -0.02234043 6.80085388 -0.01694836 8.23443222 -0.01129913 C9.76278912 -0.01618907 11.29114232 -0.02237935 12.81948924 -0.02975702 C17.01666647 -0.04616712 21.213656 -0.04383644 25.4108541 -0.03838205 C29.93861306 -0.03571313 34.46632183 -0.05024117 38.99406052 -0.06247711 C47.86399619 -0.08354006 56.73386651 -0.08807143 65.60382423 -0.08628923 C72.81422571 -0.08498188 80.02460679 -0.08878434 87.23500443 -0.09621429 C89.31155483 -0.09831349 91.38810523 -0.10041109 93.46465564 -0.10250711 C94.49820787 -0.10355064 95.5317601 -0.10459417 96.59663209 -0.10566932 C116.14815481 -0.12457563 135.69964003 -0.12352047 155.2511681 -0.11669999 C173.13373538 -0.11112587 191.01615933 -0.13194371 208.89869311 -0.16506046 C227.26164521 -0.19880282 245.62452867 -0.213965 263.98751235 -0.20934343 C274.2963963 -0.20709909 284.60514782 -0.21233667 294.91400528 -0.23723602 C303.69162225 -0.25825631 312.4690342 -0.26183402 321.24665961 -0.24293643 C325.7239166 -0.23378259 330.20079142 -0.23262462 334.67801857 -0.25329208 C338.78031357 -0.27201906 342.88191387 -0.26747972 346.98418257 -0.24474627 C348.4646569 -0.24056477 349.94518467 -0.24474546 351.42560247 -0.25834221 C361.22056376 -0.34214426 369.22662013 0.47878797 376.6333096 7.37286997 C386.9221884 18.15022986 384.49560165 27.52864134 384.49560165 43.38311005 C249.19560165 43.38311005 113.89560165 43.38311005 -25.50439835 43.38311005 C-25.50439835 20.38311005 -25.50439835 20.38311005 -20.50439835 10.38311005 C-14.35371325 4.23242495 -9.00892362 0.01264603 0 0 Z " fill="#FEFEFC" transform="translate(76.50439834594727,110.61688995361328)"/>
</svg>
